<?xml version="1.0" encoding="UTF-8"?>
<svg width="34px" height="36px" viewBox="0 0 34 36" version="1.1" xmlns="http://www.w3.org/2000/svg" xmlns:xlink="http://www.w3.org/1999/xlink">
    <!-- Generator: Sketch 41.2 (35397) - http://www.bohemiancoding.com/sketch -->
    <title>Fill 173</title>
    <desc>Created with Sketch.</desc>
    <defs></defs>
    <g id="Welcome" stroke="none" stroke-width="1" fill="none" fill-rule="evenodd">
        <g id="Account.jsx-(Weeks)" transform="translate(-172.000000, -844.000000)" fill="#FFFFFF">
            <g id="Date" transform="translate(100.000000, 819.000000)">
                <g id="Group-2" transform="translate(59.000000, 14.000000)">
                    <path d="M45,15.384 L39,15.384 L39,12.5 C39,11.948 38.552,11.5 38,11.5 L36,11.5 C35.448,11.5 35,11.948 35,12.5 L35,15.384 L25,15.384 L25,12.5 C25,11.948 24.552,11.5 24,11.5 L22,11.5 C21.448,11.5 21,11.948 21,12.5 L21,15.384 L15,15.384 C13.895,15.384 13,16.279 13,17.384 L13,44.5 C13,45.605 13.895,46.5 15,46.5 L45,46.5 C46.105,46.5 47,45.605 47,44.5 L47,17.384 C47,16.279 46.105,15.384 45,15.384 L45,15.384 Z M43,41.5 C43,42.052 42.552,42.5 42,42.5 L18,42.5 C17.448,42.5 17,42.052 17,41.5 L17,20.384 C17,19.831 17.448,19.384 18,19.384 L21,19.384 L21,21.5 C21,22.052 21.448,22.5 22,22.5 L24,22.5 C24.552,22.5 25,22.052 25,21.5 L25,19.384 L35,19.384 L35,21.5 C35,22.052 35.448,22.5 36,22.5 L38,22.5 C38.552,22.5 39,22.052 39,21.5 L39,19.384 L42,19.384 C42.552,19.384 43,19.831 43,20.384 L43,41.5 Z M25,26.5 L23,26.5 C22.448,26.5 22,26.948 22,27.5 L22,29.5 C22,30.052 22.448,30.5 23,30.5 L25,30.5 C25.552,30.5 26,30.052 26,29.5 L26,27.5 C26,26.948 25.552,26.5 25,26.5 Z M31,26.5 L29,26.5 C28.448,26.5 28,26.948 28,27.5 L28,29.5 C28,30.052 28.448,30.5 29,30.5 L31,30.5 C31.552,30.5 32,30.052 32,29.5 L32,27.5 C32,26.948 31.552,26.5 31,26.5 Z M37,26.5 L35,26.5 C34.448,26.5 34,26.948 34,27.5 L34,29.5 C34,30.052 34.448,30.5 35,30.5 L37,30.5 C37.552,30.5 38,30.052 38,29.5 L38,27.5 C38,26.948 37.552,26.5 37,26.5 Z M25,32.5 L23,32.5 C22.448,32.5 22,32.948 22,33.5 L22,35.5 C22,36.052 22.448,36.5 23,36.5 L25,36.5 C25.552,36.5 26,36.052 26,35.5 L26,33.5 C26,32.948 25.552,32.5 25,32.5 Z M31,32.5 L29,32.5 C28.448,32.5 28,32.948 28,33.5 L28,35.5 C28,36.052 28.448,36.5 29,36.5 L31,36.5 C31.552,36.5 32,36.052 32,35.5 L32,33.5 C32,32.948 31.552,32.5 31,32.5 Z M37,32.5 L35,32.5 C34.448,32.5 34,32.948 34,33.5 L34,35.5 C34,36.052 34.448,36.5 35,36.5 L37,36.5 C37.552,36.5 38,36.052 38,35.5 L38,33.5 C38,32.948 37.552,32.5 37,32.5 Z" id="Fill-173"></path>
                </g>
            </g>
        </g>
    </g>
</svg>
