<?xml version="1.0" encoding="UTF-8"?>
<svg width="27px" height="27px" viewBox="0 0 27 27" version="1.1" xmlns="http://www.w3.org/2000/svg" xmlns:xlink="http://www.w3.org/1999/xlink">
    <!-- Generator: Sketch 41.2 (35397) - http://www.bohemiancoding.com/sketch -->
    <title>Icon</title>
    <desc>Created with Sketch.</desc>
    <defs></defs>
    <g id="Page-1" stroke="none" stroke-width="1" fill="none" fill-rule="evenodd">
        <g id="Artboard-1" transform="translate(-451.000000, -627.000000)" fill="#AC9456">
            <path d="M474.89075,627.644 L465.38075,637.154 C464.99075,637.543 464.36075,637.543 463.97175,637.154 L454.10975,627.292 C453.72075,626.903 453.08975,626.903 452.70075,627.292 L451.29175,628.701 C450.90275,629.09 450.90275,629.72 451.29175,630.11 L461.15375,639.972 C461.54275,640.361 461.54275,640.991 461.15375,641.381 L451.64375,650.89 C451.25475,651.279 451.25475,651.91 451.64375,652.299 L453.05275,653.708 C453.44175,654.097 454.07275,654.097 454.46175,653.708 L463.97175,644.198 C464.36075,643.809 464.99075,643.809 465.38075,644.198 L474.53775,653.356 C474.92675,653.745 475.55775,653.745 475.94675,653.356 L477.35575,651.947 C477.74475,651.558 477.74475,650.927 477.35575,650.538 L468.19775,641.381 C467.80875,640.991 467.80875,640.361 468.19775,639.972 L477.70775,630.462 C478.09675,630.073 478.09675,629.442 477.70775,629.053 L476.29875,627.644 C475.90975,627.255 475.27975,627.255 474.89075,627.644" id="Icon"></path>
        </g>
    </g>
</svg>