<?xml version="1.0" encoding="UTF-8"?>
<svg width="34px" height="34px" viewBox="0 0 34 34" version="1.1" xmlns="http://www.w3.org/2000/svg" xmlns:xlink="http://www.w3.org/1999/xlink">
    <!-- Generator: Sketch 41.2 (35397) - http://www.bohemiancoding.com/sketch -->
    <title>Icon</title>
    <desc>Created with Sketch.</desc>
    <defs></defs>
    <g id="Welcome" stroke="none" stroke-width="1" fill="none" fill-rule="evenodd">
        <g id="Account.jsx-(Purchases)" transform="translate(-172.000000, -857.000000)" fill="#FFFFFF">
            <g id="Community" transform="translate(100.000000, 831.000000)">
                <g id="Group-2" transform="translate(59.000000, 14.000000)">
                    <path d="M43,24.2091262 L43,41.0281262 C43,41.5771262 42.552,42.0221262 42,42.0221262 L18,42.0221262 C17.45,42.0221262 17,41.5751262 17,41.0281262 L17,24.2391262 C17,23.8831262 17.442,23.5541262 17.752,23.3771262 L29.843,16.5431262 C30.15,16.3681262 30.59,16.3671262 30.898,16.5411262 L42.713,23.3451262 C43.026,23.5211262 43,23.8521262 43,24.2091262 L43,24.2091262 Z M14.256,20.7851262 C13.634,21.1391262 13,21.7981262 13,22.5101262 L13,43.0171262 C13,44.6581262 14.35,46.0001262 16,46.0001262 L44,46.0001262 C45.65,46.0001262 47,44.6581262 47,43.0171262 L47,22.5131262 C47,21.7991262 46.865,21.1391262 46.24,20.7861262 L31.326,12.2611262 C30.711,11.9121262 29.894,11.9131262 29.279,12.2631262 L14.256,20.7851262 Z M34,30.0001262 L32,30.0001262 C31.448,30.0001262 31,29.5521262 31,29.0001262 L31,27.0001262 C31,26.4481262 31.448,26.0001262 32,26.0001262 L34,26.0001262 C34.552,26.0001262 35,26.4481262 35,27.0001262 L35,29.0001262 C35,29.5521262 34.552,30.0001262 34,30.0001262 Z M34,36.0001262 L32,36.0001262 C31.448,36.0001262 31,35.5521262 31,35.0001262 L31,33.0001262 C31,32.4481262 31.448,32.0001262 32,32.0001262 L34,32.0001262 C34.552,32.0001262 35,32.4481262 35,33.0001262 L35,35.0001262 C35,35.5521262 34.552,36.0001262 34,36.0001262 Z M28,30.0001262 L26,30.0001262 C25.448,30.0001262 25,29.5521262 25,29.0001262 L25,27.0001262 C25,26.4481262 25.448,26.0001262 26,26.0001262 L28,26.0001262 C28.552,26.0001262 29,26.4481262 29,27.0001262 L29,29.0001262 C29,29.5521262 28.552,30.0001262 28,30.0001262 Z M28,36.0001262 L26,36.0001262 C25.448,36.0001262 25,35.5521262 25,35.0001262 L25,33.0001262 C25,32.4481262 25.448,32.0001262 26,32.0001262 L28,32.0001262 C28.552,32.0001262 29,32.4481262 29,33.0001262 L29,35.0001262 C29,35.5521262 28.552,36.0001262 28,36.0001262 Z" id="Icon"></path>
                </g>
            </g>
        </g>
    </g>
</svg>