<?xml version="1.0" encoding="UTF-8"?>
<svg width="27px" height="27px" viewBox="0 0 27 27" version="1.1" xmlns="http://www.w3.org/2000/svg" xmlns:xlink="http://www.w3.org/1999/xlink">
    <!-- Generator: Sketch 41.2 (35397) - http://www.bohemiancoding.com/sketch -->
    <title>Group 8</title>
    <desc>Created with Sketch.</desc>
    <defs></defs>
    <g id="Welcome" stroke="none" stroke-width="1" fill="none" fill-rule="evenodd">
        <g id="Account.jsx-(NoBankNoBudget)" transform="translate(-127.000000, -235.000000)">
            <g id="Group-4-Copy" transform="translate(102.000000, 207.000000)">
                <g id="Group-7" transform="translate(26.000000, 28.000000)">
                    <g id="Group-8" transform="translate(0.000000, 1.000000)">
                        <circle id="Oval-3" stroke="#AC9456" fill="#AC9456" cx="12.5" cy="12.5" r="12.5"></circle>
                        <path d="M20.4489145,7.78075862 L19.7999247,7.1340604 C19.6207191,6.9553132 19.3301404,6.9553132 19.1509348,7.1340604 L10.7786908,15.4792632 C10.5994853,15.6580104 10.3089065,15.6580104 10.129701,15.4792632 L6.43284216,11.7943208 C6.25363663,11.6155736 5.96259952,11.6155736 5.78385232,11.7943208 L5.13440415,12.441019 C4.95519862,12.6197662 4.95519862,12.9094284 5.13440415,13.0881756 L9.79374791,17.7319362 C10.1517006,18.0889723 10.7323999,18.0894306 11.0912693,17.7328529 L20.4484562,8.42837348 C20.62812,8.24962628 20.62812,7.95950582 20.4489145,7.78075862" id="Icon" fill="#FFFFFF"></path>
                    </g>
                </g>
            </g>
        </g>
    </g>
</svg>