<?xml version="1.0" encoding="UTF-8"?>
<svg width="153px" height="138px" viewBox="0 0 153 138" version="1.1" xmlns="http://www.w3.org/2000/svg" xmlns:xlink="http://www.w3.org/1999/xlink">
    <!-- Generator: Sketch 41.2 (35397) - http://www.bohemiancoding.com/sketch -->
    <title>monitor</title>
    <desc>Created with Sketch.</desc>
    <defs></defs>
    <g id="Welcome" stroke="none" stroke-width="1" fill="none" fill-rule="evenodd">
        <g id="Landing.jsx" transform="translate(-196.000000, -900.000000)" fill="#FFFFFF">
            <path d="M345.162207,900 L199.837793,900 C197.727007,900 196,901.735041 196,903.855646 L196,1007.25122 C196,1009.37183 197.727007,1011.10687 199.837793,1011.10687 L268.662207,1011.10687 L268.662207,1030.28871 L241.41388,1030.28871 C239.303094,1030.28871 237.576087,1032.02375 237.576087,1034.14435 C237.576087,1036.26496 239.303094,1038 241.41388,1038 L303.58612,1038 C305.696906,1038 307.423913,1036.26496 307.423913,1034.14435 C307.423913,1032.02375 305.696906,1030.28871 303.58612,1030.28871 L276.337793,1030.28871 L276.337793,1011.10687 L345.162207,1011.10687 C347.272993,1011.10687 349,1009.37183 349,1007.25122 L349,903.855646 C349,901.735041 347.304975,900 345.162207,900 L345.162207,900 Z M341.324415,1003.39558 L203.675585,1003.39558 L203.675585,907.711292 L341.356396,907.711292 L341.356396,1003.39558 L341.324415,1003.39558 Z M267.830686,960.630035 L277.68102,960.630035 C281.518813,960.630035 284.65301,963.778813 284.65301,967.634459 C284.65301,971.490105 281.518813,974.638882 277.68102,974.638882 L259.963211,974.638882 C257.852425,974.638882 256.125418,976.373923 256.125418,978.494529 C256.125418,980.615134 257.852425,982.350175 259.963211,982.350175 L268.91806,982.350175 L268.91806,988.969034 C268.91806,991.089639 270.645067,992.82468 272.755853,992.82468 C274.866639,992.82468 276.593645,991.089639 276.593645,988.969034 L276.593645,982.350175 L277.776965,982.350175 L277.87291,982.350175 C285.868311,982.253783 292.328595,975.667055 292.328595,967.634459 C292.328595,959.505471 285.772366,952.918743 277.68102,952.918743 L267.830686,952.918743 C263.992893,952.918743 260.858696,949.769965 260.858696,945.914319 C260.858696,942.058673 263.992893,938.909895 267.830686,938.909895 L285.228679,938.909895 C287.339465,938.909895 289.066472,937.174854 289.066472,935.054249 C289.066472,932.933644 287.339465,931.198603 285.228679,931.198603 L276.593645,931.198603 L276.593645,924.676135 C276.593645,922.55553 274.866639,920.820489 272.755853,920.820489 C270.645067,920.820489 268.91806,922.55553 268.91806,924.676135 L268.91806,931.198603 L267.830686,931.198603 C259.739339,931.198603 253.18311,937.785332 253.18311,945.914319 C253.18311,954.011176 259.739339,960.630035 267.830686,960.630035 Z" id="monitor"></path>
        </g>
    </g>
</svg>
