<?xml version="1.0" encoding="UTF-8"?>
<svg width="35px" height="46px" viewBox="0 0 35 46" version="1.1" xmlns="http://www.w3.org/2000/svg" xmlns:xlink="http://www.w3.org/1999/xlink">
    <!-- Generator: Sketch 41.2 (35397) - http://www.bohemiancoding.com/sketch -->
    <title>Fill 163</title>
    <desc>Created with Sketch.</desc>
    <defs></defs>
    <g id="Welcome" stroke="none" stroke-width="1" fill="none" fill-rule="evenodd">
        <g id="Account.jsx-(Purchases)" transform="translate(-173.000000, -935.000000)" fill="#FFFFFF">
            <g id="Food-and-Drink" transform="translate(100.000000, 918.000000)">
                <g id="Group-2" transform="translate(59.000000, 14.000000)">
                    <path d="M47.0006033,25 L41.7576033,25 L41.8746033,22.08 C41.9196033,20.945 41.0116033,20 39.8766033,20 L16.0006033,20 C14.8646033,20 13.9566033,20.945 14.0016033,22.08 L15.0016033,47.08 C15.0446033,48.153 15.9266033,49 17.0006033,49 L38.8756033,49 C39.9496033,49 40.8316033,48.153 40.8746033,47.08 L41.0376033,43 L45.6256033,43 C46.6546033,43 47.5156033,42.219 47.6166033,41.195 L48.9916033,27.195 C49.1066033,26.019 48.1826033,25 47.0006033,25 L47.0006033,25 Z M36.9926033,44.04 C36.9706033,44.576 36.5296033,45 35.9926033,45 L19.8836033,45 C19.3466033,45 18.9056033,44.576 18.8846033,44.04 L18.1246033,25.04 C18.1016033,24.472 18.5556033,24 19.1236033,24 L36.7526033,24 C37.3206033,24 37.7746033,24.472 37.7516033,25.04 L36.9926033,44.04 L36.9926033,44.04 Z M43.9006033,38.098 C43.8506033,38.61 43.4196033,39 42.9056033,39 L41.1976033,39 L41.5976033,29 L43.6916033,29 C44.2826033,29 44.7446033,29.51 44.6866033,30.098 L43.9006033,38.098 Z M20.7446033,14.184 L22.3506033,15.718 C22.7446033,16.094 23.3836033,16.094 23.7786033,15.718 L25.2046033,14.355 C25.5996033,13.979 25.5996033,13.369 25.2046033,12.993 L23.9326033,11.778 C23.6586033,11.516 23.6556033,11.092 23.9306033,10.831 C24.9986033,9.813 25.4946033,8.394 25.2666033,6.929 C25.1126033,5.937 24.5686033,5.035 23.8246033,4.325 L22.7326033,3.282 C22.3386033,2.906 21.6996033,2.906 21.3056033,3.282 L19.8786033,4.645 C19.4846033,5.021 19.4836033,5.631 19.8786033,6.007 L21.0786033,7.153 C21.2576033,7.325 21.2846033,7.524 21.2846033,7.628 C21.2846033,7.734 21.2576033,7.938 21.0696033,8.111 C19.1936033,9.849 18.8956033,12.419 20.7446033,14.184 Z M29.7446033,14.184 L31.3506033,15.718 C31.7446033,16.094 32.3836033,16.094 32.7786033,15.718 L34.2046033,14.355 C34.5996033,13.979 34.5996033,13.369 34.2046033,12.993 L32.9326033,11.778 C32.6586033,11.516 32.6556033,11.092 32.9306033,10.831 C33.9986033,9.813 34.4946033,8.394 34.2666033,6.929 C34.1126033,5.937 33.5686033,5.035 32.8246033,4.325 L31.7326033,3.282 C31.3386033,2.906 30.6996033,2.906 30.3056033,3.282 L28.8786033,4.645 C28.4846033,5.021 28.4836033,5.631 28.8786033,6.007 L30.0786033,7.153 C30.2576033,7.325 30.2846033,7.524 30.2846033,7.628 C30.2846033,7.734 30.2576033,7.938 30.0696033,8.111 C28.1936033,9.849 27.8956033,12.419 29.7446033,14.184 Z" id="Fill-163"></path>
                </g>
            </g>
        </g>
    </g>
</svg>