<?xml version="1.0" encoding="UTF-8"?>
<svg width="35px" height="33px" viewBox="0 0 35 33" version="1.1" xmlns="http://www.w3.org/2000/svg" xmlns:xlink="http://www.w3.org/1999/xlink">
    <!-- Generator: Sketch 41.2 (35397) - http://www.bohemiancoding.com/sketch -->
    <title>Icon</title>
    <desc>Created with Sketch.</desc>
    <defs></defs>
    <g id="Welcome" stroke="none" stroke-width="1" fill="none" fill-rule="evenodd">
        <g id="Account.jsx-(Purchases)" transform="translate(-171.000000, -1035.000000)" fill="#FFFFFF">
            <g id="Healthcare" transform="translate(100.000000, 1005.000000)">
                <g id="Group-2" transform="translate(59.000000, 14.000000)">
                    <path d="M29.7517269,48.999837 C28.9387269,48.999837 28.1587269,48.644837 27.6117269,48.024837 L15.0617269,33.812837 C12.5487269,31.209837 10.5497269,26.305837 13.3877269,21.267837 C14.8927269,18.595837 17.2817269,16.745837 19.9427269,16.192837 C22.7517269,15.611837 25.6767269,16.357837 27.9737269,18.239837 C28.6337269,18.779837 29.2157269,19.389837 29.7137269,20.055837 C30.1327269,19.470837 30.6137269,18.931837 31.1507269,18.450837 C33.1497269,16.661837 35.7097269,15.852837 38.3597269,16.160837 C42.6807269,16.667837 46.1797269,20.216837 46.8667269,24.790837 C47.3637269,28.097837 46.4687269,31.066837 44.1317269,33.866837 L31.9137269,48.001837 C31.3687269,48.631837 30.5867269,48.994837 29.7667269,48.999837 L29.7517269,48.999837" id="Icon"></path>
                </g>
            </g>
        </g>
    </g>
</svg>