<?xml version="1.0" encoding="UTF-8"?>
<svg width="25px" height="26px" viewBox="0 0 25 26" version="1.1" xmlns="http://www.w3.org/2000/svg" xmlns:xlink="http://www.w3.org/1999/xlink">
    <!-- Generator: Sketch 41.2 (35397) - http://www.bohemiancoding.com/sketch -->
    <title>Icon</title>
    <desc>Created with Sketch.</desc>
    <defs></defs>
    <g id="Welcome" stroke="none" stroke-width="1" fill="none" fill-rule="evenodd">
        <g id="Events.jsx-(Searching)" transform="translate(-460.000000, -832.000000)" fill="#FAF9F9">
            <path d="M472.680073,857.113085 C472.099355,857.113085 471.54221,856.842928 471.151493,856.371104 L462.187158,845.555682 C460.392149,843.574782 458.964284,839.842807 460.990723,836.008857 C462.066443,833.975448 463.772881,832.567587 465.673606,832.14675 C467.680046,831.704606 469.769343,832.272316 471.410066,833.70453 C471.881497,834.115474 472.297214,834.579687 472.65293,835.086518 C472.952217,834.641329 473.295791,834.231147 473.679364,833.865103 C475.107229,832.503662 476.93581,831.888008 478.828678,832.122398 C481.915123,832.508228 484.414423,835.20904 484.90514,838.689883 C485.260142,841.206531 484.620852,843.465959 482.951558,845.596776 L474.224367,856.353601 C473.835079,856.833035 473.276505,857.10928 472.690787,857.113085 L472.680073,857.113085 L472.680073,857.113085 Z M472.642216,839.813128 C471.901497,839.800191 471.284351,839.249222 471.080778,838.485172 C470.832206,837.556744 470.321489,836.720398 469.597913,836.088763 C468.839338,835.426688 467.929333,835.075103 467.015756,835.075103 C466.761469,835.075103 466.505753,835.102499 466.253609,835.158813 C465.163603,835.399291 464.155741,836.262272 463.488594,837.524021 C461.923586,840.485858 463.706452,842.819103 464.290027,843.463676 L472.131498,852.923745 C472.418643,853.270764 472.925074,853.26772 473.209362,852.917657 L480.769403,843.599135 C481.89298,842.165399 482.298697,840.786455 482.067981,839.149531 C481.774408,837.0697 480.272257,835.39853 478.495819,835.176316 C477.429385,835.042379 476.394379,835.391681 475.587232,836.162581 C474.9658,836.754644 474.520797,837.547612 474.293653,838.440273 C474.088652,839.244656 473.441506,839.827587 472.66293,839.813128 L472.642216,839.813128 L472.642216,839.813128 Z" id="Icon"></path>
        </g>
    </g>
</svg>