<?xml version="1.0" encoding="UTF-8"?>
<svg width="25px" height="24px" viewBox="0 0 25 24" version="1.1" xmlns="http://www.w3.org/2000/svg" xmlns:xlink="http://www.w3.org/1999/xlink">
    <!-- Generator: Sketch 41.2 (35397) - http://www.bohemiancoding.com/sketch -->
    <title>Icon</title>
    <desc>Created with Sketch.</desc>
    <defs></defs>
    <g id="Welcome" stroke="none" stroke-width="1" fill="none" fill-rule="evenodd">
        <g id="Events.jsx-(Searching)" transform="translate(-878.000000, -834.000000)" fill="#E52F4F">
            <g id="John-Legend-Event-Card" transform="translate(523.000000, 761.000000)">
                <path d="M366.151383,95.8751904 L357.186977,85.7236257 C355.391953,83.864315 353.964077,80.3614109 355.991247,76.7627912 C357.066261,74.8541942 358.772713,73.5327479 360.673452,73.1377426 C362.679908,72.722737 364.769222,73.2556013 366.409958,74.599905 C366.881393,74.9856245 367.297113,75.4213446 367.652832,75.8970653 C367.952122,75.4792026 368.295698,75.0941974 368.679274,74.7506213 C370.10715,73.4727471 371.935746,72.8948822 373.828629,73.1148851 C376.915099,73.4770328 379.414418,76.0120668 379.905139,79.2792535 C380.260144,81.6414281 379.620849,83.7621708 377.951541,85.7621976 L369.224281,95.8587616 C368.83499,96.3087677 368.276412,96.5680569 367.690689,96.5716283 C367.099253,96.5716283 366.542103,96.3180535 366.151383,95.8751904 Z" id="Icon"></path>
            </g>
        </g>
    </g>
</svg>