<?xml version="1.0" encoding="UTF-8"?>
<svg width="18px" height="27px" viewBox="0 0 18 27" version="1.1" xmlns="http://www.w3.org/2000/svg" xmlns:xlink="http://www.w3.org/1999/xlink">
    <!-- Generator: Sketch 41.2 (35397) - http://www.bohemiancoding.com/sketch -->
    <title>Icon</title>
    <desc>Created with Sketch.</desc>
    <defs></defs>
    <g id="Welcome" stroke="none" stroke-width="1" fill="none" fill-rule="evenodd" fill-opacity="0.573143116">
        <g id="Events.jsx-(Searching)" transform="translate(-103.000000, -692.000000)" fill="#435061">
            <path d="M119.813646,696.507031 C118.345482,693.924439 115.700281,692.249667 112.738126,692.027407 C112.302998,691.995321 111.855349,691.991408 111.417874,692.015668 C108.453371,692.187059 105.779996,693.815657 104.267223,696.372423 C102.691059,699.036407 102.582277,702.26543 103.957312,704.970108 L109.827623,717.369682 C110.211881,718.125677 110.985876,718.600718 111.849088,718.607761 C112.710735,718.615587 113.493339,718.154633 113.911249,717.366551 L119.955298,705.146977 C121.396854,702.428211 121.343637,699.198406 119.813646,696.507031 L119.813646,696.507031 Z M117.138707,703.762551 L111.885871,714.384049 L106.796598,703.634986 C105.875474,701.821693 105.949821,699.685185 106.993815,697.919631 C107.989287,696.23625 109.669537,695.207126 111.603351,695.095997 C111.752045,695.087388 111.90074,695.083475 112.052565,695.08504 C112.202825,695.086605 112.352302,695.092866 112.500215,695.103823 C114.431681,695.248604 116.093931,696.306685 117.061229,698.007283 C118.074701,699.790837 118.110701,701.928127 117.138707,703.762551 Z M112.017348,699.04345 C110.936572,699.034059 110.053013,699.902749 110.043621,700.982742 C110.03423,702.063518 110.90292,702.947077 111.983696,702.956469 C113.063689,702.96586 113.947249,702.09717 113.95664,701.017177 C113.966031,699.936401 113.097341,699.052841 112.017348,699.04345 Z" id="Icon"></path>
        </g>
    </g>
</svg>