<?xml version="1.0" encoding="UTF-8"?>
<svg width="156px" height="138px" viewBox="0 0 156 157" version="1.1" xmlns="http://www.w3.org/2000/svg" xmlns:xlink="http://www.w3.org/1999/xlink">
    <!-- Generator: Sketch 41.2 (35397) - http://www.bohemiancoding.com/sketch -->
    <title>piggy-bank-1</title>
    <desc>Created with Sketch.</desc>
    <defs></defs>
    <g id="Welcome" stroke="none" stroke-width="1" fill="none" fill-rule="evenodd">
        <g id="Landing.jsx" transform="translate(-642.000000, -881.000000)" fill="#FFFFFF">
            <path d="M787.131936,946.80359 L784.695438,946.80359 C781.040691,937.325311 774.821208,928.711605 766.549938,921.730981 C766.549938,921.730981 766.549938,921.730981 766.549938,921.69896 C765.331689,917.408117 766.229346,912.797063 769.24291,907.993881 C770.909988,905.336121 770.909988,902.037936 769.210851,899.412197 C767.511714,896.786457 764.53021,895.377524 761.420469,895.761779 C749.847102,897.202733 742.954377,902.454212 738.91492,907.321436 C735.099877,906.264736 731.156597,905.496227 727.181258,905.015909 C725.065351,904.759739 723.1418,906.264736 722.917386,908.378136 C722.660912,910.491536 724.167694,912.412808 726.2836,912.636957 C730.707768,913.149296 735.067818,914.109933 739.267571,915.422802 C740.902589,915.935142 742.665845,915.326739 743.62762,913.917805 C746.38471,909.851112 751.866831,904.695697 762.414303,903.382827 C762.510481,903.382827 762.638718,903.350806 762.766954,903.542933 C762.895191,903.73506 762.799014,903.863145 762.766954,903.927187 C758.59926,910.555578 757.381011,917.408117 759.208385,923.81236 L759.208385,923.908423 C759.240444,925.029166 759.753391,926.085866 760.651048,926.790332 C769.114673,933.61085 775.237978,942.288599 778.379778,951.83092 C778.892725,953.399959 780.367448,954.48868 782.034525,954.48868 L782.098644,954.48868 L787.196054,954.48868 C788.959309,954.48868 790.369914,955.897614 790.369914,957.65878 L790.369914,974.950235 C790.369914,976.711401 788.959309,978.120334 787.196054,978.120334 L782.323058,978.120334 C780.623921,978.120334 779.149199,979.209056 778.636252,980.842137 C775.879162,989.872119 770.397041,998.165613 762.831073,1004.89007 C762.799014,1004.92209 762.799014,1004.92209 762.766954,1004.95411 L762.734895,1004.98613 C762.446363,1005.2423 762.15783,1005.46645 761.869297,1005.72262 C761.837238,1005.75464 761.805179,1005.78666 761.77312,1005.78666 C753.565968,1013.21558 752.732429,1021.95737 752.668311,1024.45503 L752.668311,1024.55109 L752.668311,1030.21885 L729.553637,1030.21885 L729.553637,1024.80726 C729.553637,1023.71854 729.104809,1022.69386 728.27127,1021.95737 C727.437731,1021.22089 726.379778,1020.86865 725.289766,1020.99674 C722.725031,1021.25291 720.160296,1021.41301 717.595561,1021.41301 C714.325524,1021.41301 711.023428,1021.18886 707.817509,1020.77259 C706.727497,1020.61248 705.605425,1020.96472 704.771887,1021.7012 C703.938348,1022.43769 703.45746,1023.49439 703.45746,1024.58311 L703.45746,1030.25087 L680.342787,1030.25087 L680.342787,1028.55374 L680.342787,1028.39364 C680.150432,1024.23088 678.836005,1013.59984 670.532676,1005.08219 C666.589396,1001.0155 663.062885,995.667958 660.049322,989.167652 C660.017263,989.10361 660.017263,989.071589 659.985203,989.039568 C658.189889,985.581277 656.843403,981.930859 655.913687,978.184377 C655.913687,978.152356 655.881628,978.120334 655.881628,978.088313 L655.881628,978.024271 C654.98397,974.341832 654.535142,970.563329 654.535142,966.784826 C654.535142,964.127065 654.759556,961.469305 655.208385,958.875586 C655.561036,956.794208 654.150432,954.808893 652.034525,954.456659 C649.950678,954.104426 647.963009,955.513359 647.610358,957.626759 C647.097411,960.636753 646.840937,963.742811 646.840937,966.816847 C646.840937,971.13971 647.353884,975.494595 648.347719,979.721395 C648.347719,979.785437 648.379778,979.881501 648.411837,979.945544 C648.411837,979.945544 648.443896,980.009586 648.443896,980.137671 C649.50185,984.396492 651.07275,988.591271 653.092478,992.52988 C656.458693,999.798695 660.466091,1005.81868 665.018496,1010.49378 C671.398274,1017.05813 672.488286,1025.35162 672.648582,1028.71385 L672.648582,1030.34693 L672.648582,1030.66714 C672.648582,1030.82725 672.648582,1030.98735 672.680641,1031.11544 C673.065351,1034.99001 676.367448,1037.96798 680.278668,1037.96798 L703.489519,1037.96798 C707.721332,1037.96798 711.151665,1034.54171 711.151665,1030.31491 L711.151665,1028.87395 C714.710234,1029.16215 718.268804,1029.19417 721.827374,1029.03406 L721.827374,1030.34693 C721.827374,1034.57373 725.257707,1038 729.489519,1038 L752.70037,1038 C756.932182,1038 760.362515,1034.57373 760.362515,1030.34693 L760.362515,1024.67918 C760.394575,1023.36631 760.907522,1017.02611 766.902589,1011.5825 C767.191122,1011.32633 767.479655,1011.07016 767.768187,1010.81399 C767.800247,1010.78197 767.800247,1010.78197 767.832306,1010.74995 C767.896424,1010.68591 767.992602,1010.62186 768.05672,1010.55782 C775.847102,1003.60922 781.681874,995.091577 785.048089,985.837446 L787.131936,985.837446 C793.127004,985.837446 798,980.970222 798,974.982256 L798,957.690802 C798,951.670814 793.127004,946.80359 787.131936,946.80359 Z M679.669544,956.249847 C700.443896,956.249847 717.339088,939.374669 717.339088,918.624924 C717.339088,897.875178 700.443896,881 679.669544,881 C658.895191,881 642,897.875178 642,918.624924 C642,939.374669 658.895191,956.249847 679.669544,956.249847 Z M679.669544,888.685091 C696.212084,888.685091 709.644883,902.101978 709.644883,918.624924 C709.644883,935.147869 696.212084,948.564756 679.669544,948.564756 C663.127004,948.564756 649.694205,935.147869 649.694205,918.624924 C649.694205,902.101978 663.127004,888.685091 679.669544,888.685091 Z" id="piggy-bank-1"></path>
        </g>
    </g>
</svg>
