<?xml version="1.0" encoding="UTF-8"?>
<svg width="156px" height="129px" viewBox="0 0 156 129" version="1.1" xmlns="http://www.w3.org/2000/svg" xmlns:xlink="http://www.w3.org/1999/xlink">
    <!-- Generator: Sketch 41.2 (35397) - http://www.bohemiancoding.com/sketch -->
    <title>piggy-bank</title>
    <desc>Created with Sketch.</desc>
    <defs></defs>
    <g id="Welcome" stroke="none" stroke-width="1" fill="none" fill-rule="evenodd">
        <g id="Banks.jsx" transform="translate(-1177.000000, -113.000000)" fill="#435061">
            <g id="Group-2" transform="translate(1063.000000, 113.000000)">
                <path d="M206.311226,121.330489 L200.125092,121.330489 L200.125092,116.569001 C200.125092,115.450531 199.644304,114.395973 198.810939,113.692935 C197.977574,112.95794 196.855736,112.638377 195.765951,112.766202 C192.881225,113.149678 189.932394,113.341416 186.983563,113.341416 C184.707835,113.341416 182.368002,113.21359 180.092274,112.989896 C179.002488,112.862071 177.912703,113.21359 177.11139,113.948585 C176.310078,114.68358 175.82929,115.706181 175.82929,116.792695 L175.82929,121.298533 L155.700314,121.298533 L155.700314,116.537045 L155.700314,116.441176 C155.636209,114.140323 154.866949,106.119293 147.366662,99.3445584 C147.334609,99.3126021 147.302557,99.2806458 147.270504,99.2806458 C147.014084,99.0569518 146.757664,98.8332577 146.501244,98.6095636 L146.469192,98.5776073 C146.437139,98.545651 146.437139,98.545651 146.405087,98.5136948 C139.67406,92.5698239 134.770026,85.1240072 132.301983,77.0390646 C131.821195,75.4412499 130.314727,74.3227796 128.615944,74.3227796 L124.22475,74.3227796 C122.846493,74.3227796 121.724655,73.2043093 121.724655,71.8301886 L121.724655,56.2355167 C121.724655,54.861396 122.846493,53.7429257 124.22475,53.7429257 L128.808259,53.7429257 C130.47499,53.774882 132.01351,52.7203243 132.52635,51.0905533 C135.346971,42.5262663 140.82795,34.7928429 148.424395,28.6891906 C149.289813,27.9861521 149.802653,26.9315944 149.866758,25.8131241 C151.533488,19.9970784 150.41165,13.7336446 146.661507,7.69390491 C155.956734,8.87628782 160.828716,13.4140817 163.264707,16.9931867 C164.226282,18.3992637 165.98917,19.0064333 167.623848,18.4951326 C173.842035,16.5457986 180.348694,15.5551534 187.015616,15.5551534 C211.567838,15.5551534 233.203281,29.1046224 240.831779,49.2690445 C241.440776,50.8668592 241.953616,52.4966302 242.338247,54.1264013 C242.594667,55.180959 242.819034,56.2355167 243.011349,57.2581182 C243.363927,59.3352773 245.351182,60.7413543 247.434595,60.3898351 C249.518009,60.0383158 250.928319,58.0570255 250.575741,55.9798664 C250.351374,54.7335709 250.094954,53.4872754 249.806481,52.2729362 C249.325693,50.3555585 248.716696,48.4381808 248.011541,46.5527594 C239.261206,23.416402 214.741036,7.88564268 187.015616,7.88564268 C180.508956,7.88564268 174.098455,8.74846264 167.91232,10.41019 C164.226282,6.00022129 157.911937,1.33460225 147.494872,0.0563504556 C144.546041,-0.295168787 141.693368,1.0150393 140.090742,3.50763029 C138.488117,6.00022129 138.488117,9.13193818 140.05869,11.6564855 C142.686996,15.8427601 143.520361,19.8692532 142.462628,23.6081397 C135.058498,29.8715735 129.481362,37.5410843 126.147901,46.0414587 L124.192698,46.0414587 C118.583509,46.0414587 114,50.6112088 114,56.2035604 L114,71.7982323 C114,77.3905839 118.583509,81.960334 124.192698,81.960334 L125.827376,81.960334 C128.904417,90.2689707 134.161028,97.8745689 141.180528,104.138003 C141.244633,104.201915 141.308738,104.265828 141.404895,104.32974 C141.436948,104.361697 141.436948,104.361697 141.469,104.393653 C141.72542,104.617347 141.98184,104.841041 142.270313,105.064735 C147.558977,109.858179 148.007712,115.418575 148.039765,116.600958 L148.039765,121.713965 C148.039765,125.708502 151.309121,128.968044 155.315684,128.968044 L176.278025,128.968044 C180.284589,128.968044 183.553945,125.708502 183.553945,121.713965 L183.553945,120.915057 C186.534828,121.042883 189.515711,121.010926 192.464542,120.787232 L192.464542,121.682008 C192.464542,125.676545 195.733898,128.936087 199.740462,128.936087 L206.343279,128.936087 C208.458744,128.936087 210.18958,127.210447 210.18958,125.101332 C210.18958,122.992217 208.426692,121.330489 206.311226,121.330489 Z M266.185313,91.1957032 L261.441542,91.1957032 L261.441542,83.4303236 C261.441542,73.172353 253.075837,64.7998037 242.754929,64.7998037 C232.434021,64.7998037 224.068316,73.1403967 224.068316,83.4303236 L224.068316,91.1957032 L219.324545,91.1957032 C217.209079,91.1957032 215.478244,92.9213432 215.478244,95.0304586 L215.478244,125.165245 C215.478244,127.27436 217.209079,129 219.324545,129 L266.153261,129 C268.268726,129 269.999562,127.27436 269.999562,125.165245 L269.999562,95.0304586 C270.031614,92.9213432 268.300779,91.1957032 266.185313,91.1957032 Z M231.760919,83.4303236 C231.760919,77.3905839 236.697005,72.4693145 242.754929,72.4693145 C248.812853,72.4693145 253.74894,77.3905839 253.74894,83.4303236 L253.74894,91.1957032 L231.792971,91.1957032 L231.792971,83.4303236 L231.760919,83.4303236 Z M262.339012,121.330489 L223.170846,121.330489 L223.170846,98.865214 L262.30696,98.865214 L262.30696,121.330489 L262.339012,121.330489 Z" id="piggy-bank"></path>
            </g>
        </g>
    </g>
</svg>