<?xml version="1.0" encoding="UTF-8"?>
<svg width="38px" height="36px" viewBox="0 0 38 36" version="1.1" xmlns="http://www.w3.org/2000/svg" xmlns:xlink="http://www.w3.org/1999/xlink">
    <!-- Generator: Sketch 41.2 (35397) - http://www.bohemiancoding.com/sketch -->
    <title>piggy-bank-2</title>
    <desc>Created with Sketch.</desc>
    <defs></defs>
    <g id="Welcome" stroke="none" stroke-width="1" fill="none" fill-rule="evenodd">
        <g id="Account.jsx-(Weeks)" transform="translate(-608.000000, -248.000000)" fill="#FFFFFF">
            <g id="Group-4-Copy-2" transform="translate(529.000000, 196.000000)">
                <g id="Group-3" transform="translate(59.000000, 32.000000)">
                    <path d="M55.2862745,32.9511714 L54.6509804,32.9511714 C53.7333333,30.5390847 52.172549,28.3555945 50.0784314,26.589884 L50.0784314,26.5741187 C49.7647059,25.4784322 50,24.3039194 50.7607843,23.0821108 C51.1529412,22.4514999 51.1764706,21.6868842 50.8156863,21.040508 C50.4627451,20.4020145 49.7960784,20 49.0745098,20 C48.9882353,20 48.9019608,20.0078826 48.8235294,20.0157653 C45.9137255,20.3783665 44.172549,21.7105321 43.1686275,22.948106 C41.427451,22.4672652 39.6235294,22.2229034 37.7882353,22.2229034 C33.0588235,22.2229034 28.6117647,23.8467265 25.254902,26.7948325 C21.8666667,29.774469 20,33.7473177 20,37.9802934 C20,39.0759799 20.1254902,40.1716663 20.3843137,41.2437048 C20.3843137,41.2594701 20.3921569,41.283118 20.4,41.2988833 C20.4,41.2988833 20.4078431,41.3146486 20.4156863,41.3461791 C20.6823529,42.4261003 21.0745098,43.4823735 21.5843137,44.4834684 C22.4235294,46.3201226 23.4352941,47.8493541 24.572549,49.0317495 C26.1882353,50.7028684 26.4627451,52.8154149 26.5019608,53.6667397 L26.5019608,54.0845194 L26.5019608,54.1633457 C26.5019608,54.2027589 26.5019608,54.2421721 26.5098039,54.2737026 C26.6039216,55.2432669 27.427451,55.9921174 28.4,55.9921174 L34.2431373,55.9921174 C35.2862745,55.9921174 36.1411765,55.13291 36.1411765,54.0845194 L36.1411765,53.6903876 C37.0509804,53.7613313 37.9686275,53.7770966 38.8862745,53.7298007 L38.8862745,54.092402 C38.8862745,55.1407926 39.7411765,56 40.7843137,56 L46.627451,56 C47.6705882,56 48.5254902,55.1407926 48.5254902,54.092402 L48.5254902,52.6577622 C48.5333333,52.3188088 48.6666667,50.710751 50.1803922,49.3234071 C50.2509804,49.260346 50.3294118,49.1972849 50.4,49.1342238 C50.4078431,49.1263411 50.4078431,49.1263411 50.4156863,49.1184585 C50.4313725,49.1026932 50.454902,49.086928 50.4705882,49.0711627 C52.4313725,47.3054522 53.8980392,45.1534924 54.745098,42.8044668 L55.2941176,42.8044668 C56.7843137,42.8044668 58,41.5826582 58,40.0849573 L58,35.7022115 C57.9921569,34.1729801 56.7764706,32.9511714 55.2862745,32.9511714 L55.2862745,32.9511714 Z M56.1098039,40.0534268 C56.1098039,40.5106197 55.7411765,40.8811036 55.2862745,40.8811036 L54.0627451,40.8811036 C53.6470588,40.8811036 53.2862745,41.1491132 53.1607843,41.5511277 C52.4627451,43.8370922 51.0823529,45.9496387 49.1764706,47.6601708 C49.1686275,47.6680534 49.1686275,47.6680534 49.1607843,47.6759361 L49.1529412,47.6838187 C49.0823529,47.7468798 49.0117647,47.8099409 48.9411765,47.873002 C48.9333333,47.8808846 48.9254902,47.8887672 48.9176471,47.8887672 C46.8627451,49.7648347 46.6509804,51.9719728 46.6352941,52.6025838 L46.6352941,52.6262317 L46.6352941,54.0766367 C46.6352941,54.0845194 46.627451,54.092402 46.6196078,54.092402 L40.7764706,54.092402 C40.7686275,54.092402 40.7607843,54.0845194 40.7607843,54.0766367 L40.7607843,52.6971754 C40.7607843,52.4291658 40.6509804,52.1769214 40.4470588,51.9956208 C40.2745098,51.837968 40.0470588,51.751259 39.8196078,51.751259 C39.7882353,51.751259 39.7568627,51.751259 39.7176471,51.7591417 C39.0745098,51.8300854 38.4235294,51.8616159 37.7803922,51.8616159 C36.9568627,51.8616159 36.1254902,51.8064375 35.3176471,51.6960806 C35.0509804,51.6566674 34.7764706,51.7433764 34.572549,51.924677 C34.3686275,52.1059777 34.2509804,52.3661047 34.2509804,52.6341143 L34.2509804,54.0766367 C34.2509804,54.0845194 34.2431373,54.092402 34.2352941,54.092402 L28.3921569,54.092402 C28.3843137,54.092402 28.3764706,54.0845194 28.3764706,54.0766367 L28.3764706,53.6352091 L28.3764706,53.5957959 C28.3294118,52.5395227 28,49.8594263 25.9137255,47.7074666 C24.9176471,46.6748413 24.0235294,45.3190278 23.2627451,43.6715568 C23.254902,43.6557915 23.254902,43.6479089 23.2470588,43.6400263 C22.8,42.757171 22.4470588,41.8349026 22.2196078,40.8889862 C22.2196078,40.8811036 22.2117647,40.8732209 22.2117647,40.8653383 L22.2117647,40.849573 C21.9843137,39.9115393 21.8745098,38.9498577 21.8745098,37.9960587 C21.8745098,30.3499015 29.0117647,24.1226188 37.7803922,24.1226188 C39.654902,24.1226188 41.4823529,24.4063937 43.2235294,24.9581782 C43.6235294,25.0843004 44.054902,24.9345303 44.2901961,24.5876943 C44.9882353,23.5471863 46.3764706,22.2465513 49.0431373,21.907598 C49.1058824,21.8997153 49.145098,21.9391285 49.1607843,21.9706591 C49.1921569,22.0258375 49.1686275,22.0731333 49.1529412,22.0888986 C48.1098039,23.7600175 47.8039216,25.4941975 48.2588235,27.1022553 C48.2588235,27.1101379 48.2666667,27.1259032 48.2666667,27.1337859 C48.2745098,27.4096781 48.4,27.6698051 48.6196078,27.8432231 C50.7529412,29.5774031 52.2980392,31.7766586 53.0901961,34.2045106 C53.2156863,34.5907598 53.5764706,34.8587694 53.9843137,34.8587694 L53.9921569,34.8587694 L55.2784314,34.8587694 C55.7333333,34.8587694 56.1019608,35.2292533 56.1019608,35.6864462 L56.1019608,40.0534268 L56.1098039,40.0534268 Z M38.8078431,37.0343771 L36.7058824,37.0343771 C35.9529412,37.0343771 35.3411765,36.4195314 35.3411765,35.6627983 C35.3411765,34.9060653 35.9529412,34.2912196 36.7058824,34.2912196 L40.4235294,34.2912196 C40.9411765,34.2912196 41.3647059,33.8655573 41.3647059,33.3453033 C41.3647059,32.8250493 40.9411765,32.3993869 40.4235294,32.3993869 L38.7058824,32.3993869 L38.7058824,31.1302825 C38.7058824,30.6100285 38.2823529,30.1843661 37.7647059,30.1843661 C37.2470588,30.1843661 36.8235294,30.6100285 36.8235294,31.1302825 L36.8235294,32.3993869 L36.7137255,32.3993869 C34.9254902,32.3993869 33.4666667,33.8655573 33.4666667,35.6627983 C33.4666667,37.4600394 34.9254902,38.9262098 36.7137255,38.9262098 L38.8156863,38.9262098 C39.5686275,38.9262098 40.1803922,39.5410554 40.1803922,40.2977885 C40.1803922,41.0545216 39.5686275,41.6693672 38.8156863,41.6693672 L35.0352941,41.6693672 C34.5176471,41.6693672 34.0941176,42.0950296 34.0941176,42.6152836 C34.0941176,43.1355376 34.5176471,43.5611999 35.0352941,43.5611999 L36.8235294,43.5611999 L36.8235294,44.8539523 C36.8235294,45.3742063 37.2470588,45.7998686 37.7647059,45.7998686 C38.2823529,45.7998686 38.7058824,45.3742063 38.7058824,44.8539523 L38.7058824,43.5611999 L38.8392157,43.5611999 L38.8627451,43.5611999 C40.6352941,43.537552 42.0705882,42.0792643 42.0705882,40.2977885 C42.054902,38.5005474 40.5960784,37.0343771 38.8078431,37.0343771 Z" id="piggy-bank-2"></path>
                </g>
            </g>
        </g>
    </g>
</svg>