<?xml version="1.0" encoding="UTF-8"?>
<svg width="34px" height="22px" viewBox="0 0 34 22" version="1.1" xmlns="http://www.w3.org/2000/svg" xmlns:xlink="http://www.w3.org/1999/xlink">
    <!-- Generator: Sketch 41.2 (35397) - http://www.bohemiancoding.com/sketch -->
    <title>Fill 168</title>
    <desc>Created with Sketch.</desc>
    <defs></defs>
    <g id="Welcome" stroke="none" stroke-width="1" fill="none" fill-rule="evenodd">
        <g id="Account.jsx-(Purchases)" transform="translate(-172.000000, -1123.000000)" fill="#FAF9F9">
            <g id="Recreation" transform="translate(100.000000, 1092.000000)">
                <g id="Group-2" transform="translate(59.000000, 14.000000)">
                    <path d="M44.9948871,25.7124907 C39.2418871,25.7124907 36.4418871,18.3714907 36.4148871,18.3014907 C35.9508871,17.0354907 34.3548871,16.5904907 33.2798871,17.4274907 L14.6458871,31.9444907 C12.8538871,33.2164907 12.3958871,35.7234907 13.9188871,37.6194907 C14.6458871,38.5254907 15.8038871,38.9994907 16.9798871,38.9994907 L16.9818871,38.9994907 L44.9958871,38.9794907 C46.1028871,38.9784907 46.9998871,38.0984907 46.9998871,37.0134907 L46.9998871,27.6774907 C46.9998871,26.5924907 46.1018871,25.7124907 44.9948871,25.7124907 L44.9948871,25.7124907 Z M24.0458871,29.6434907 C24.5328871,30.9814907 25.3178871,33.3764907 25.8368871,35.0624907 L17.0828871,35.0684907 L24.0458871,29.6434907 L24.0458871,29.6434907 Z M41.9868871,35.0514907 L30.0218871,35.0594907 C29.8038871,34.2854907 29.4638871,33.2064907 28.9578871,31.6554907 C28.0568871,28.8894907 27.6068871,27.6854907 27.3238871,27.0894907 L28.7938871,25.9444907 L29.3678871,26.6094907 C29.7268871,27.0234907 30.3588871,27.0744907 30.7818871,26.7234907 L32.3108871,25.4534907 C32.7338871,25.1024907 32.7858871,24.4824907 32.4278871,24.0684907 L31.9338871,23.4974907 L33.7948871,22.0484907 C35.1898871,24.5204907 37.8998871,28.1464907 42.2118871,29.2864907 C42.6618871,29.4054907 42.9888871,29.7854907 42.9888871,30.2424907 L42.9888871,34.0684907 C42.9888871,34.6104907 42.5408871,35.0504907 41.9868871,35.0514907 L41.9868871,35.0514907 Z" id="Fill-168"></path>
                </g>
            </g>
        </g>
    </g>
</svg>