<?xml version="1.0" encoding="UTF-8"?>
<svg width="28px" height="28px" viewBox="0 0 28 28" version="1.1" xmlns="http://www.w3.org/2000/svg" xmlns:xlink="http://www.w3.org/1999/xlink">
    <!-- Generator: Sketch 41.2 (35397) - http://www.bohemiancoding.com/sketch -->
    <title>Icon</title>
    <desc>Created with Sketch.</desc>
    <defs></defs>
    <g id="Welcome" stroke="none" stroke-width="1" fill="#121212" fill-rule="evenodd" fill-opacity="1">
        <g id="Banks.jsx" transform="translate(-115.000000, -202.000000)" fill="#121212">
            <g id="Group-3" transform="translate(97.000000, 191.000000)">
                <path d="M45.7671007,36.5022395 L38.5223485,29.2038877 C38.2503503,28.9302895 38.2231505,28.5086923 38.4335491,28.1854944 C41.4039295,23.6295245 40.7111341,17.3639659 36.328763,13.6215906 C32.1119909,10.0216144 25.6936333,10.1448136 21.6080603,13.8951888 C16.9184913,18.1999604 16.800092,25.527112 21.2544626,29.9846825 C25.0528375,33.7862574 30.9319987,34.2478544 35.2495702,31.3918732 C35.573568,31.1774746 35.9983652,31.2054745 36.2719634,31.4806726 L43.5007156,38.7638245 C43.8135136,39.0782224 44.3207102,39.0790224 44.6343082,38.7654245 L45.7655007,37.633432 C46.0774986,37.3214341 46.0782986,36.8158374 45.7671007,36.5022395 L45.7671007,36.5022395 Z M23.5168477,27.7198975 C20.4256681,24.6263179 20.4256681,19.5927512 23.5168477,16.4991716 C26.6080272,13.4055921 31.637594,13.4047921 34.7287736,16.4991716 C37.8199532,19.5927512 37.8199532,24.6263179 34.7287736,27.7198975 C31.637594,30.813477 26.6080272,30.813477 23.5168477,27.7198975 L23.5168477,27.7198975 Z" id="Icon"></path>
            </g>
        </g>
    </g>
</svg>
