<?xml version="1.0" encoding="UTF-8"?>
<svg width="35px" height="34px" viewBox="0 0 35 34" version="1.1" xmlns="http://www.w3.org/2000/svg" xmlns:xlink="http://www.w3.org/1999/xlink">
    <!-- Generator: Sketch 41.2 (35397) - http://www.bohemiancoding.com/sketch -->
    <title>Icon</title>
    <desc>Created with Sketch.</desc>
    <defs></defs>
    <g id="Welcome" stroke="none" stroke-width="1" fill="none" fill-rule="evenodd">
        <g id="Account.jsx-(Purchases)" transform="translate(-171.000000, -1293.000000)" fill="#FFFFFF">
            <g id="Shops" transform="translate(100.000000, 1266.000000)">
                <g id="Group-2" transform="translate(59.000000, 14.000000)">
                    <path d="M27.162,43.995 C27.162,45.654 25.804,47 24.129,47 C22.455,47 21.097,45.654 21.097,43.995 C21.097,42.334 22.455,40.989 24.129,40.989 C25.804,40.989 27.162,42.334 27.162,43.995 Z M40.034,43.827 C40.034,45.487 38.676,46.833 37.001,46.833 C35.326,46.833 33.969,45.487 33.969,43.827 C33.969,42.167 35.326,40.822 37.001,40.822 C38.676,40.822 40.034,42.167 40.034,43.827 Z M39.291,39.048 L21.35,39.048 C20.313,39.048 19.444,38.27 19.339,37.248 L17.343,17.907 C17.29,17.396 16.856,17.007 16.338,17.007 L13.011,17.007 C12.453,17.007 12,16.559 12,16.005 L12,14.002 C12,13.448 12.453,13 13.011,13 L19.075,13 C20.112,13 20.981,13.777 21.087,14.8 L21.428,18.111 C21.481,18.622 21.916,19.011 22.434,19.011 L44.977,19.011 C46.371,19.011 47.346,20.376 46.884,21.679 L41.198,37.709 C40.914,38.511 40.149,39.048 39.291,39.048 Z M24.088,35.04 L37.143,35.04 C37.572,35.04 37.954,34.772 38.096,34.371 L41.65,24.353 C41.881,23.701 41.393,23.018 40.696,23.018 L23.054,23.018 C22.455,23.018 21.987,23.532 22.048,24.122 L23.082,34.141 C23.135,34.652 23.569,35.04 24.088,35.04 L24.088,35.04 Z" id="Icon"></path>
                </g>
            </g>
        </g>
    </g>
</svg>