<?xml version="1.0" encoding="UTF-8"?>
<svg width="144px" height="138px" viewBox="0 0 144 155" version="1.1" xmlns="http://www.w3.org/2000/svg" xmlns:xlink="http://www.w3.org/1999/xlink">
    <!-- Generator: Sketch 41.2 (35397) - http://www.bohemiancoding.com/sketch -->
    <title>shopping-cart-2</title>
    <desc>Created with Sketch.</desc>
    <defs></defs>
    <g id="Welcome" stroke="none" stroke-width="1" fill="none" fill-rule="evenodd">
        <g id="Landing.jsx" transform="translate(-1110.000000, -883.000000)" fill="#FFFFFF">
            <path d="M1186.96374,952.789978 C1187.69899,953.525098 1188.68999,953.908639 1189.68099,953.908639 C1190.67199,953.908639 1191.63102,953.525098 1192.39824,952.789978 L1216.02237,929.170246 C1217.52486,927.668044 1217.52486,925.238951 1216.02237,923.736749 C1214.51989,922.234547 1212.09035,922.234547 1210.58786,923.736749 L1189.68099,944.671694 L1181.24152,936.233792 C1179.73904,934.73159 1177.30949,934.73159 1175.80701,936.233792 C1174.30453,937.735995 1174.30453,940.165087 1175.80701,941.66729 L1186.96374,952.789978 Z M1150.84024,984.751727 L1236.80138,984.751727 C1246.29578,984.751727 1254,977.016984 1254,967.556306 L1254,931.343645 C1254,929.234169 1252.27374,927.508235 1250.16388,927.508235 C1248.05401,927.508235 1246.32775,929.234169 1246.32775,931.343645 L1246.32775,967.524344 C1246.32775,972.798033 1242.04408,977.048945 1236.80138,977.048945 L1150.84024,977.048945 C1145.56557,977.048945 1141.31386,972.766071 1141.31386,967.524344 L1141.31386,946.205858 L1141.31386,922.362394 L1141.31386,919.262104 L1141.31386,896.824956 C1141.31386,896.697109 1141.31386,896.537301 1141.28189,896.409454 L1141.28189,896.313568 C1141.28189,896.217683 1141.24993,896.121798 1141.24993,896.057874 C1141.24993,895.993951 1141.21796,895.898066 1141.18599,895.834142 C1141.18599,895.80218 1141.15402,895.738257 1141.15402,895.706295 C1141.12206,895.61041 1141.09009,895.546486 1141.05812,895.450601 C1141.05812,895.418639 1141.02615,895.386678 1141.02615,895.354716 C1140.99418,895.290792 1140.96222,895.194907 1140.93025,895.130984 C1140.89828,895.099022 1140.89828,895.035098 1140.86631,895.003137 C1140.83435,894.939213 1140.80238,894.87529 1140.77041,894.811366 C1140.73844,894.747443 1140.70648,894.715481 1140.67451,894.651557 C1140.64254,894.619596 1140.61057,894.555672 1140.5786,894.52371 C1140.54664,894.459787 1140.4827,894.395863 1140.45073,894.363902 C1140.41877,894.33194 1140.3868,894.299978 1140.35483,894.268016 C1140.2909,894.204093 1140.25893,894.140169 1140.19499,894.076246 C1140.16302,894.044284 1140.13106,894.012323 1140.09909,894.012323 C1140.03515,893.948399 1139.97122,893.884476 1139.90728,893.852514 C1139.87531,893.820552 1139.84335,893.78859 1139.81138,893.756629 C1139.74744,893.724667 1139.68351,893.660743 1139.61957,893.628782 C1139.55564,893.564858 1139.45973,893.532896 1139.3958,893.468973 C1139.36383,893.468973 1139.33186,893.437011 1139.33186,893.405049 C1139.20399,893.341126 1139.07612,893.277202 1138.94825,893.213279 L1115.32412,883.305137 C1113.37409,882.474131 1111.13635,883.401022 1110.30519,885.350689 C1109.47403,887.268394 1110.4011,889.537678 1112.35113,890.368683 L1133.60965,899.349935 L1133.60965,919.262104 L1133.60965,922.362394 L1133.60965,946.205858 L1133.60965,967.524344 L1133.60965,994.468098 C1133.60965,1003.48131 1140.54664,1010.86448 1149.36972,1011.5996 C1147.57953,1014.28438 1146.5246,1017.51252 1146.5246,1020.99635 C1146.5246,1030.36114 1154.16488,1038 1163.53141,1038 C1172.89795,1038 1180.53823,1030.36114 1180.53823,1020.99635 C1180.53823,1017.54448 1179.51526,1014.34831 1177.75704,1011.66352 L1218.45192,1011.66352 C1216.6937,1014.34831 1215.67073,1017.54448 1215.67073,1020.99635 C1215.67073,1030.36114 1223.31101,1038 1232.67754,1038 C1242.04408,1038 1249.68436,1030.36114 1249.68436,1020.99635 C1249.68436,1011.63156 1242.04408,1003.9927 1232.67754,1003.9927 L1150.84024,1003.9927 C1145.56557,1003.9927 1141.31386,999.709825 1141.31386,994.468098 L1141.31386,981.843208 C1144.03112,983.665027 1147.32379,984.751727 1150.84024,984.751727 Z M1172.86598,1020.99635 C1172.86598,1026.14219 1168.67821,1030.32918 1163.53141,1030.32918 C1158.38461,1030.32918 1154.19684,1026.14219 1154.19684,1020.99635 C1154.19684,1015.85051 1158.38461,1011.66352 1163.53141,1011.66352 C1168.67821,1011.66352 1172.86598,1015.85051 1172.86598,1020.99635 Z M1241.98015,1020.99635 C1241.98015,1026.14219 1237.79238,1030.32918 1232.64558,1030.32918 C1227.49878,1030.32918 1223.31101,1026.14219 1223.31101,1020.99635 C1223.31101,1015.85051 1227.49878,1011.66352 1232.64558,1011.66352 C1237.79238,1011.66352 1241.98015,1015.85051 1241.98015,1020.99635 Z" id="shopping-cart-2"></path>
        </g>
    </g>
</svg>
