<?xml version="1.0" encoding="UTF-8"?>
<svg width="28px" height="34px" viewBox="0 0 28 34" version="1.1" xmlns="http://www.w3.org/2000/svg" xmlns:xlink="http://www.w3.org/1999/xlink">
    <!-- Generator: Sketch 41.2 (35397) - http://www.bohemiancoding.com/sketch -->
    <title>shopping-bag-1</title>
    <desc>Created with Sketch.</desc>
    <defs></defs>
    <g id="Welcome" stroke="none" stroke-width="1" fill="none" fill-rule="evenodd">
        <g id="Eventsjsx" transform="translate(-832.000000, -636.000000)" fill="#FFFFFF">
            <g id="Event-Card-Copy-4" transform="translate(521.000000, 629.000000)">
                <path d="M338.2,36.4676051 L336.241036,14.4179259 C336.205803,13.9815773 335.839378,13.6507969 335.39544,13.6507969 L331.266114,13.6507969 C331.259067,9.98406127 328.271295,7 324.6,7 C320.928705,7 317.940933,9.98406127 317.933886,13.6507969 L313.80456,13.6507969 C313.367668,13.6507969 313.001244,13.9815773 312.958964,14.4179259 L311,36.4676051 L311,36.5450217 C311,39.001242 313.261969,41 316.038342,41 L333.161658,41 C335.938031,41 338.2,39.001242 338.2,36.5450217 L338.2,36.4676051 L338.2,36.4676051 Z M324.6,8.68909129 C327.34114,8.68909129 329.567876,10.9130615 329.574922,13.6507969 L319.625078,13.6507969 C319.632124,10.9130615 321.85886,8.68909129 324.6,8.68909129 L324.6,8.68909129 Z M333.161658,39.3038708 L316.038342,39.3038708 C314.206218,39.3038708 312.712332,38.0863175 312.691192,36.5731733 L314.579689,15.3398882 L317.933886,15.3398882 L317.933886,18.3028359 C317.933886,18.767336 318.314404,19.1473815 318.779482,19.1473815 C319.24456,19.1473815 319.625078,18.767336 319.625078,18.3028359 L319.625078,15.3398882 L329.574922,15.3398882 L329.574922,18.3028359 C329.574922,18.767336 329.95544,19.1473815 330.420518,19.1473815 C330.885596,19.1473815 331.266114,18.767336 331.266114,18.3028359 L331.266114,15.3398882 L334.620311,15.3398882 L336.508808,36.5802111 C336.487668,38.0863175 334.993782,39.3038708 333.161658,39.3038708 Z M328.116269,24.5806251 L323.127254,29.5634444 L321.090777,27.529497 C320.759585,27.1987166 320.224041,27.1987166 319.89285,27.529497 C319.561658,27.8602774 319.561658,28.3951563 319.89285,28.7259367 L322.52829,31.3581039 C322.690363,31.5199752 322.908808,31.6044297 323.127254,31.6044297 C323.345699,31.6044297 323.557098,31.5199752 323.726218,31.3581039 L329.314197,25.7770648 C329.645389,25.4462844 329.645389,24.9114055 329.314197,24.5806251 C328.983005,24.2568826 328.447461,24.2568826 328.116269,24.5806251 Z" id="shopping-bag-1"></path>
            </g>
        </g>
    </g>
</svg>