<?xml version="1.0" encoding="UTF-8"?>
<svg width="34px" height="35px" viewBox="0 0 34 35" version="1.1" xmlns="http://www.w3.org/2000/svg" xmlns:xlink="http://www.w3.org/1999/xlink">
    <!-- Generator: Sketch 41.2 (35397) - http://www.bohemiancoding.com/sketch -->
    <title>Fill 173</title>
    <desc>Created with Sketch.</desc>
    <defs></defs>
    <g id="Welcome" stroke="none" stroke-width="1" fill="none" fill-rule="evenodd">
        <g id="Account.jsx-(Purchases)" transform="translate(-172.000000, -1467.000000)" fill="#FFFFFF">
            <g id="Tax" transform="translate(100.000000, 1440.000000)">
                <g id="Group-2" transform="translate(59.000000, 14.000000)">
                    <path d="M45,16.884 L39,16.884 L39,14 C39,13.448 38.552,13 38,13 L36,13 C35.448,13 35,13.448 35,14 L35,16.884 L25,16.884 L25,14 C25,13.448 24.552,13 24,13 L22,13 C21.448,13 21,13.448 21,14 L21,16.884 L15,16.884 C13.895,16.884 13,17.779 13,18.884 L13,46 C13,47.105 13.895,48 15,48 L45,48 C46.105,48 47,47.105 47,46 L47,18.884 C47,17.779 46.105,16.884 45,16.884 L45,16.884 Z M43,43 C43,43.552 42.552,44 42,44 L18,44 C17.448,44 17,43.552 17,43 L17,21.884 C17,21.331 17.448,20.884 18,20.884 L21,20.884 L21,23 C21,23.552 21.448,24 22,24 L24,24 C24.552,24 25,23.552 25,23 L25,20.884 L35,20.884 L35,23 C35,23.552 35.448,24 36,24 L38,24 C38.552,24 39,23.552 39,23 L39,20.884 L42,20.884 C42.552,20.884 43,21.331 43,21.884 L43,43 Z M25,28 L23,28 C22.448,28 22,28.448 22,29 L22,31 C22,31.552 22.448,32 23,32 L25,32 C25.552,32 26,31.552 26,31 L26,29 C26,28.448 25.552,28 25,28 Z M31,28 L29,28 C28.448,28 28,28.448 28,29 L28,31 C28,31.552 28.448,32 29,32 L31,32 C31.552,32 32,31.552 32,31 L32,29 C32,28.448 31.552,28 31,28 Z M37,28 L35,28 C34.448,28 34,28.448 34,29 L34,31 C34,31.552 34.448,32 35,32 L37,32 C37.552,32 38,31.552 38,31 L38,29 C38,28.448 37.552,28 37,28 Z M25,34 L23,34 C22.448,34 22,34.448 22,35 L22,37 C22,37.552 22.448,38 23,38 L25,38 C25.552,38 26,37.552 26,37 L26,35 C26,34.448 25.552,34 25,34 Z M31,34 L29,34 C28.448,34 28,34.448 28,35 L28,37 C28,37.552 28.448,38 29,38 L31,38 C31.552,38 32,37.552 32,37 L32,35 C32,34.448 31.552,34 31,34 Z M37,34 L35,34 C34.448,34 34,34.448 34,35 L34,37 C34,37.552 34.448,38 35,38 L37,38 C37.552,38 38,37.552 38,37 L38,35 C38,34.448 37.552,34 37,34 Z" id="Fill-173"></path>
                </g>
            </g>
        </g>
    </g>
</svg>