<?xml version="1.0" encoding="UTF-8"?>
<svg width="33px" height="33px" viewBox="0 0 33 33" version="1.1" xmlns="http://www.w3.org/2000/svg" xmlns:xlink="http://www.w3.org/1999/xlink">
    <!-- Generator: Sketch 41.2 (35397) - http://www.bohemiancoding.com/sketch -->
    <title>Fill 181</title>
    <desc>Created with Sketch.</desc>
    <defs></defs>
    <g id="Welcome" stroke="none" stroke-width="1" fill="none" fill-rule="evenodd">
        <g id="Account.jsx-(Tickets)" transform="translate(-171.000000, -847.000000)" fill="#FFFFFF">
            <g id="Date" transform="translate(100.000000, 819.000000)">
                <g id="Group-2" transform="translate(59.000000, 14.000000)">
                    <path d="M43.0068822,14 L29.1668822,14 C28.6458822,14 28.1448822,14.206 27.7718822,14.574 L12.5978822,29.553 C11.8038822,30.337 11.7998822,31.625 12.5908822,32.413 L26.6368822,46.419 C27.4158822,47.196 28.6718822,47.193 29.4478822,46.413 L44.4148822,31.364 C44.7898822,30.988 44.9998822,30.477 44.9998822,29.944 L44.9998822,16.007 C44.9998822,14.899 44.1078822,14 43.0068822,14 L43.0068822,14 Z M41.0138822,28.695 C41.0138822,28.961 40.9088822,29.217 40.7218822,29.405 L28.7348822,41.457 C28.3468822,41.847 27.7188822,41.849 27.3298822,41.46 L17.5508822,31.711 C17.1558822,31.317 17.1578822,30.673 17.5548822,30.281 L29.6908822,18.301 C29.8768822,18.117 30.1268822,18.014 30.3878822,18.014 L40.0168822,18.014 C40.5678822,18.014 41.0138822,18.464 41.0138822,19.018 L41.0138822,28.695 Z M31.8318822,22.462 C30.5668822,23.735 30.5668822,25.801 31.8318822,27.074 C33.0968822,28.348 35.1468822,28.348 36.4118822,27.074 C37.6768822,25.801 37.6768822,23.735 36.4118822,22.462 C35.1468822,21.188 33.0968822,21.188 31.8318822,22.462 Z" id="Fill-181"></path>
                </g>
            </g>
        </g>
    </g>
</svg>
