<?xml version="1.0" encoding="UTF-8"?>
<svg width="35px" height="40px" viewBox="0 0 35 40" version="1.1" xmlns="http://www.w3.org/2000/svg" xmlns:xlink="http://www.w3.org/1999/xlink">
    <!-- Generator: Sketch 41.2 (35397) - http://www.bohemiancoding.com/sketch -->
    <title>Icon</title>
    <desc>Created with Sketch.</desc>
    <defs></defs>
    <g id="Welcome" stroke="none" stroke-width="1" fill="none" fill-rule="evenodd">
        <g id="Account.jsx-(Purchases)" transform="translate(-172.000000, -1376.000000)" fill="#FFFFFF">
            <g id="Transfers" transform="translate(100.000000, 1353.000000)">
                <g id="Group-2" transform="translate(59.000000, 14.000000)">
                    <path d="M39.7260731,17.3062766 C40.8440731,24.1502766 35.0400731,29.9832766 28.2290731,28.8612766 C24.1060731,28.1812766 20.7800731,24.8382766 20.1030731,20.6932766 C18.9870731,13.8492766 24.7900731,8.01627657 31.6000731,9.13927657 C35.7230731,9.81927657 39.0500731,13.1612766 39.7260731,17.3062766 Z M27.8450731,41.0792766 L35.9290731,35.7112766 C37.4440731,34.7062766 39.4570731,35.8052766 39.4550731,37.6382766 C39.4540731,38.9092766 40.4750731,39.9382766 41.7320731,39.9382766 L45.8460731,39.9382766 C46.5290731,39.9382766 46.9960731,39.2532766 46.7730731,38.6012766 C45.4440731,34.7202766 43.2800731,31.2132766 40.4680731,28.2992766 C40.0750731,27.8902766 39.4160731,27.9042766 39.0280731,28.3192766 C36.4140731,31.1082766 32.4650731,32.6572766 28.1810731,31.9632766 C25.5280731,31.5332766 23.1540731,30.2042766 21.3880731,28.3152766 C21.0060731,27.9052766 20.3450731,27.9012766 19.9570731,28.3052766 C16.7370731,31.6452766 14.3580731,35.7582766 13.1190731,40.3242766 L13.0690731,40.5122766 C12.7290731,41.7682766 13.6870731,43.0002766 15.0030731,43.0002766 L26.8180731,43.0002766 C26.8190731,42.2662766 27.1620731,41.5332766 27.8450731,41.0792766 Z M39.7510731,45.5242766 L46.9710731,45.5242766 C47.5390731,45.5242766 48.0000731,45.0712766 48.0000731,44.5122766 L48.0000731,42.4882766 C48.0000731,41.9292766 47.5390731,41.4762766 46.9710731,41.4762766 L39.7510731,41.4762766 C38.6870731,41.4762766 37.8240731,40.6272766 37.8240731,39.5802766 L37.8240731,39.0142766 C37.8240731,38.2092766 36.9140731,37.7262766 36.2300731,38.1682766 L29.2820731,42.6542766 C28.6630731,43.0542766 28.6630731,43.9462766 29.2820731,44.3462766 L36.2300731,48.8322766 C36.9140731,49.2742766 37.8240731,48.7912766 37.8240731,47.9862766 L37.8240731,47.4202766 C37.8240731,46.3732766 38.6870731,45.5242766 39.7510731,45.5242766 Z" id="Icon"></path>
                </g>
            </g>
        </g>
    </g>
</svg>