<?xml version="1.0" encoding="UTF-8"?>
<svg width="38px" height="31px" viewBox="0 0 38 31" version="1.1" xmlns="http://www.w3.org/2000/svg" xmlns:xlink="http://www.w3.org/1999/xlink">
    <!-- Generator: Sketch 41.2 (35397) - http://www.bohemiancoding.com/sketch -->
    <title>Fill 155</title>
    <desc>Created with Sketch.</desc>
    <defs></defs>
    <g id="Welcome" stroke="none" stroke-width="1" fill="none" fill-rule="evenodd">
        <g id="Account.jsx-(Purchases)" transform="translate(-170.000000, -1559.000000)" fill="#FFFFFF">
            <g id="Travel" transform="translate(100.000000, 1529.000000)">
                <g id="Group-2" transform="translate(59.000000, 14.000000)">
                    <path d="M36.6630008,35.992 L15.9400008,36.001 C15.3950008,36.001 14.9530008,35.553 14.9530008,35.001 L14.9480008,21.008 C14.9480008,20.456 15.3900008,20.008 15.9340008,20.008 L36.6570008,19.999 C37.2020008,19.999 37.6440008,20.446 37.6440008,20.998 L37.6490008,34.992 C37.6490008,35.544 37.2080008,35.992 36.6630008,35.992 L36.6630008,35.992 Z M12.9730008,16.011 C11.8830008,16.011 10.9990008,16.907 11.0000008,18.011 L11.0070008,38.002 C11.0070008,39.106 11.8910008,40 12.9810008,40 L39.6250008,39.989 C40.7150008,39.988 41.5980008,39.093 41.5970008,37.989 L41.5910008,17.998 C41.5900008,16.894 40.7060008,16 39.6160008,16 L12.9730008,16.011 Z M46.0390008,47 L20.3770008,47 C19.8320008,47 19.3900008,46.552 19.3900008,46 L19.3900008,44 C19.3900008,43.448 19.8320008,43 20.3770008,43 L43.0780008,43 C44.1680008,43 45.0520008,42.105 45.0520008,41 L45.0520008,22 C45.0520008,21.448 45.4940008,21 46.0390008,21 L48.0130008,21 C48.5580008,21 49.0000008,21.448 49.0000008,22 L49.0000008,44 C49.0000008,45.657 47.6740008,47 46.0390008,47 Z M21.1650008,31.762 L25.4420008,26.278 C25.7300008,25.907 26.2690008,25.907 26.5580008,26.278 L30.8360008,31.762 C31.2210008,32.257 30.8860008,33 30.2770008,33 L21.7230008,33 C21.1140008,33 20.7790008,32.257 21.1650008,31.762 Z M33.0000008,25 C33.0000008,26.105 32.1040008,27 31.0000008,27 C29.8960008,27 29.0000008,26.105 29.0000008,25 C29.0000008,23.895 29.8960008,23 31.0000008,23 C32.1040008,23 33.0000008,23.895 33.0000008,25 Z" id="Fill-155"></path>
                </g>
            </g>
        </g>
    </g>
</svg>