<?xml version="1.0" encoding="UTF-8"?>
<svg width="278px" height="239px" viewBox="0 0 278 239" version="1.1" xmlns="http://www.w3.org/2000/svg" xmlns:xlink="http://www.w3.org/1999/xlink">
    <!-- Generator: Sketch 41.2 (35397) - http://www.bohemiancoding.com/sketch -->
    <title>wallet</title>
    <desc>Created with Sketch.</desc>
    <defs></defs>
    <g id="Welcome" stroke="none" stroke-width="1" fill="none" fill-rule="evenodd">
        <g id="Landing.jsx" transform="translate(-976.000000, -660.000000)" fill="#AC9456">
            <path d="M1238.43519,763.937873 L1231.82158,763.937873 L1231.82158,724.133094 C1231.82158,707.857109 1218.59434,694.664994 1202.40238,694.664994 L1196.30189,694.664994 L1196.3589,679.873835 C1196.3589,668.908961 1187.46473,660 1176.51805,660 L1000.1169,660 C986.946678,660 976.171042,670.622222 976,683.814337 L976,684.156989 L976,879.126165 C976,890.091039 984.894176,899 995.840853,899 L1202.45939,899 C1218.70837,899 1231.87859,885.750777 1231.87859,869.5319 L1231.87859,829.670012 L1238.49221,829.670012 C1247.0443,829.670012 1254,822.702748 1254,814.13644 L1254,779.471446 C1253.94299,770.905137 1246.98728,763.937873 1238.43519,763.937873 L1238.43519,763.937873 Z M1000.1169,673.706093 L1176.51805,673.706093 C1179.88187,673.706093 1182.67555,676.447312 1182.67555,679.816726 L1182.61854,694.664994 L1000.1169,694.664994 C994.358491,694.664994 989.683347,689.982079 989.683347,684.214098 C989.683347,678.446117 994.358491,673.706093 1000.1169,673.706093 L1000.1169,673.706093 Z M1218.13823,869.474791 C1218.13823,878.155317 1211.0685,885.236798 1202.40238,885.236798 L995.783839,885.236798 C992.420016,885.236798 989.626333,882.495579 989.626333,879.069056 L989.626333,705.972521 C992.819114,707.514456 996.353979,708.371087 1000.1169,708.371087 L1202.40238,708.371087 C1211.0685,708.371087 1218.13823,715.452569 1218.13823,724.133094 L1218.13823,763.937873 L1171.44381,763.937873 C1162.89171,763.937873 1155.93601,770.905137 1155.93601,779.471446 L1155.93601,814.13644 C1155.93601,822.702748 1162.89171,829.670012 1171.44381,829.670012 L1218.13823,829.670012 L1218.13823,869.474791 L1218.13823,869.474791 Z M1240.25964,814.13644 C1240.25964,815.164397 1239.46144,815.963919 1238.43519,815.963919 L1171.50082,815.963919 C1170.47457,815.963919 1169.67637,815.164397 1169.67637,814.13644 L1169.67637,779.471446 C1169.67637,778.500597 1170.47457,777.643967 1171.50082,777.643967 L1238.43519,777.643967 C1239.40443,777.643967 1240.25964,778.443489 1240.25964,779.471446 L1240.25964,814.13644 L1240.25964,814.13644 L1240.25964,814.13644 Z" id="wallet"></path>
        </g>
    </g>
</svg>